<svg width="241" height="50" viewBox="0 0 241 50" fill="none" xmlns="http://www.w3.org/2000/svg">
<path d="M64.9018 39.3232V10.1562H70.026L80.6511 27.4465L77.6499 27.4061L88.3995 10.1562H93.2747V39.3232H87.8982V28.365C87.8982 25.8652 87.9622 23.6143 88.0866 21.6158C88.2111 19.6173 88.4265 17.6288 88.7326 15.6572L89.3988 17.4505L80.3584 31.4099H77.6096L68.8585 17.5784L69.4405 15.6606C69.7467 17.5212 69.962 19.4322 70.0865 21.3904C70.211 23.3485 70.2749 25.6767 70.2749 28.3683V39.3266H64.8984L64.9018 39.3232Z" fill="white"/>
<path d="M108.483 39.7368C106.676 39.7368 105.038 39.2355 103.568 38.2363C102.094 37.237 100.913 35.8744 100.025 34.1518C99.1365 32.4291 98.6924 30.471 98.6924 28.2773C98.6924 26.0837 99.1365 24.1255 100.025 22.4029C100.913 20.6803 102.121 19.3345 103.648 18.3621C105.176 17.3898 106.898 16.9053 108.816 16.9053C109.926 16.9053 110.943 17.0668 111.858 17.383C112.773 17.7027 113.58 18.1535 114.273 18.7389C114.967 19.321 115.545 19.9872 116.003 20.7375C116.46 21.4877 116.773 22.2919 116.941 23.1532L115.818 22.8605V17.3595H120.986V39.3163H115.777V34.0676L116.985 33.859C116.79 34.6093 116.437 35.3394 115.922 36.046C115.407 36.7559 114.768 37.3783 114.004 37.92C113.241 38.4617 112.393 38.8991 111.464 39.2322C110.532 39.5653 109.54 39.7335 108.486 39.7335L108.483 39.7368ZM109.9 35.1981C111.094 35.1981 112.15 34.9054 113.066 34.3233C113.981 33.7413 114.697 32.9271 115.212 31.8874C115.727 30.8444 115.983 29.6433 115.983 28.284C115.983 26.9248 115.727 25.7708 115.212 24.7412C114.697 23.715 113.984 22.9076 113.066 22.3255C112.15 21.7434 111.094 21.4507 109.9 21.4507C108.705 21.4507 107.655 21.7434 106.754 22.3255C105.852 22.9076 105.149 23.715 104.651 24.7412C104.15 25.7708 103.901 26.9483 103.901 28.284C103.901 29.6198 104.15 30.8478 104.651 31.8874C105.152 32.9304 105.852 33.7413 106.754 34.3233C107.655 34.9054 108.705 35.1981 109.9 35.1981Z" fill="white"/>
<path d="M130.025 12.6968C128.995 12.6968 128.198 12.4411 127.629 11.9264C127.06 11.4116 126.774 10.6849 126.774 9.73943C126.774 8.85119 127.067 8.12782 127.649 7.57268C128.231 7.01754 129.025 6.73828 130.025 6.73828C131.081 6.73828 131.892 6.99398 132.46 7.50875C133.029 8.02352 133.315 8.76708 133.315 9.73606C133.315 10.5974 133.022 11.3073 132.44 11.8624C131.858 12.4176 131.051 12.6968 130.025 12.6968ZM127.525 39.3236V17.3634H132.649V39.3202H127.525V39.3236Z" fill="white"/>
<path d="M147.44 39.7368C145.633 39.7368 143.995 39.2355 142.525 38.2363C141.051 37.237 139.873 35.8744 138.982 34.1518C138.094 32.4291 137.649 30.471 137.649 28.2773C137.649 26.0837 138.094 24.1255 138.982 22.4029C139.87 20.6803 141.078 19.3345 142.605 18.3621C144.133 17.3898 145.855 16.9053 147.773 16.9053C148.884 16.9053 149.9 17.0668 150.815 17.383C151.73 17.7027 152.537 18.1535 153.23 18.7389C153.924 19.321 154.502 19.9872 154.96 20.7375C155.417 21.4877 155.73 22.2919 155.899 23.1532L154.775 22.8605V17.3595H159.943V39.3163H154.734V34.0676L155.942 33.859C155.747 34.6093 155.394 35.3394 154.879 36.046C154.364 36.7559 153.725 37.3783 152.961 37.92C152.198 38.4617 151.35 38.8991 150.421 39.2322C149.489 39.5653 148.497 39.7335 147.444 39.7335L147.44 39.7368ZM148.857 35.1981C150.051 35.1981 151.107 34.9054 152.023 34.3233C152.938 33.7413 153.654 32.9271 154.169 31.8874C154.684 30.8444 154.94 29.6433 154.94 28.284C154.94 26.9248 154.684 25.7708 154.169 24.7412C153.654 23.715 152.941 22.9076 152.023 22.3255C151.107 21.7434 150.051 21.4507 148.857 21.4507C147.662 21.4507 146.612 21.7434 145.711 22.3255C144.809 22.9076 144.106 23.715 143.608 24.7412C143.107 25.7708 142.858 26.9483 142.858 28.284C142.858 29.6198 143.107 30.8478 143.608 31.8874C144.109 32.9304 144.809 33.7413 145.711 34.3233C146.612 34.9054 147.662 35.1981 148.857 35.1981Z" fill="white"/>
<path d="M174.734 39.7379C172.789 39.7379 171.046 39.2466 169.505 38.2575C167.964 37.2717 166.74 35.9259 165.838 34.2167C164.936 32.5075 164.485 30.5427 164.485 28.3221C164.485 26.1015 164.929 24.1703 165.818 22.4476C166.706 20.725 167.921 19.3725 169.465 18.3867C171.006 17.4009 172.749 16.9063 174.693 16.9063C175.75 16.9063 176.769 17.0745 177.755 17.4076C178.741 17.7407 179.622 18.1915 180.399 18.7601C181.177 19.3287 181.796 19.9613 182.253 20.6544C182.711 21.3474 182.967 22.0708 183.024 22.8211L181.648 22.9893V8.48828H186.772V39.3207H181.813L181.688 34.1528L182.687 34.2369C182.66 34.93 182.418 35.5995 181.957 36.2354C181.5 36.8747 180.908 37.4567 180.188 37.9849C179.464 38.5132 178.626 38.9371 177.668 39.2567C176.709 39.5764 175.73 39.7345 174.73 39.7345L174.734 39.7379ZM175.733 35.4044C176.927 35.4044 177.984 35.0982 178.899 34.4892C179.814 33.8769 180.531 33.0459 181.045 31.9894C181.56 30.9329 181.816 29.7116 181.816 28.3221C181.816 26.9325 181.56 25.7449 181.045 24.6749C180.531 23.605 179.817 22.774 178.899 22.1751C177.984 21.5796 176.927 21.2802 175.733 21.2802C174.539 21.2802 173.482 21.5796 172.567 22.1751C171.652 22.774 170.935 23.605 170.42 24.6749C169.906 25.7449 169.65 26.9594 169.65 28.3221C169.65 29.6847 169.906 30.9329 170.42 31.9894C170.935 33.0459 171.648 33.8802 172.567 34.4892C173.482 35.1016 174.539 35.4044 175.733 35.4044Z" fill="white"/>
<path d="M201.441 39.7379C199.496 39.7379 197.753 39.2466 196.212 38.2575C194.671 37.2717 193.447 35.9259 192.545 34.2167C191.643 32.5075 191.192 30.5427 191.192 28.3221C191.192 26.1015 191.636 24.1703 192.525 22.4476C193.413 20.725 194.628 19.3725 196.172 18.3867C197.713 17.4009 199.456 16.9063 201.4 16.9063C202.457 16.9063 203.476 17.0745 204.462 17.4076C205.448 17.7407 206.329 18.1915 207.107 18.7601C207.884 19.3287 208.503 19.9613 208.96 20.6544C209.418 21.3474 209.674 22.0708 209.731 22.8211L208.355 22.9893V8.48828H213.479V39.3207H208.52L208.395 34.1528L209.394 34.2369C209.367 34.93 209.125 35.5995 208.664 36.2354C208.207 36.8747 207.615 37.4567 206.895 37.9849C206.171 38.5132 205.333 38.9371 204.375 39.2567C203.416 39.5764 202.437 39.7345 201.437 39.7345L201.441 39.7379ZM202.44 35.4044C203.634 35.4044 204.691 35.0982 205.606 34.4892C206.521 33.8769 207.238 33.0459 207.752 31.9894C208.267 30.9329 208.523 29.7116 208.523 28.3221C208.523 26.9325 208.267 25.7449 207.752 24.6749C207.238 23.605 206.524 22.774 205.606 22.1751C204.691 21.5796 203.634 21.2802 202.44 21.2802C201.246 21.2802 200.189 21.5796 199.274 22.1751C198.359 22.774 197.642 23.605 197.127 24.6749C196.613 25.7449 196.357 26.9594 196.357 28.3221C196.357 29.6847 196.613 30.9329 197.127 31.9894C197.642 33.0459 198.355 33.8802 199.274 34.4892C200.189 35.1016 201.246 35.4044 202.44 35.4044Z" fill="white"/>
<path d="M222.647 48.9041L227.314 38.1107L227.354 41.529L216.521 17.3618H222.435L228.478 31.6946C228.673 32.0546 228.868 32.5357 229.06 33.1312C229.255 33.7301 229.42 34.3189 229.561 34.901L228.518 35.234C228.714 34.7058 228.922 34.1439 229.144 33.5451C229.366 32.9495 229.575 32.3305 229.77 31.6912L234.938 17.3584H240.896L231.731 39.3152L227.98 48.8973H222.647V48.9041Z" fill="white"/>
<path d="M25.0027 41.4536C15.9286 41.4536 8.54688 34.0719 8.54688 24.9978C8.54688 15.9237 15.9286 8.54199 25.0027 8.54199C34.0768 8.54199 41.4585 15.9237 41.4585 24.9978C41.4585 34.0719 34.0768 41.4536 25.0027 41.4536ZM25.0027 15.9002C19.9862 15.9002 15.9051 19.9813 15.9051 24.9978C15.9051 30.0143 19.9862 34.0955 25.0027 34.0955C30.0192 34.0955 34.1003 30.0143 34.1003 24.9978C34.1003 19.9813 30.0192 15.9002 25.0027 15.9002Z" fill="#6CA5F6"/>
<path d="M49.9994 30.8905L49.9893 49.5097C49.9893 49.7788 49.7706 50.0009 49.4981 50.0009L30.8822 49.9908C30.4448 49.9908 30.2261 49.4626 30.5357 49.153L36.9148 42.7806C37.0056 42.6898 37.1301 42.636 37.2613 42.636H42.1466C42.4158 42.636 42.6378 42.4173 42.6378 42.1481V37.2595C42.6378 37.1283 42.6916 37.0038 42.7825 36.9129L49.1616 30.5405C49.4711 30.231 49.9994 30.4497 49.9994 30.8871V30.8905Z" fill="#6D38DD"/>
<path d="M19.4774 0.844492L13.0983 7.21688C13.0074 7.30772 12.8829 7.36155 12.7517 7.36155H7.86644C7.59728 7.36155 7.37522 7.58024 7.37522 7.8494V12.738C7.37522 12.8693 7.32139 12.9937 7.23055 13.0846L0.851435 19.457C0.5419 19.7665 0.0136719 19.5478 0.0136719 19.1104L0.0237654 0.491219C0.0237654 0.218693 0.242459 0 0.514984 0L19.1308 0.0100935C19.5682 0.0100935 19.7869 0.538322 19.4774 0.847857V0.844492Z" fill="#6D38DD"/>
<path d="M30.89 0L49.5092 0.0100935C49.7784 0.0100935 50.0004 0.228787 50.0004 0.501312L49.9904 19.1172C49.9904 19.5545 49.4621 19.7732 49.1526 19.4637L42.7802 13.0846C42.6894 12.9937 42.6355 12.8693 42.6355 12.738V7.85277C42.6355 7.58361 42.4168 7.36155 42.1477 7.36155H37.259C37.1278 7.36155 37.0033 7.30772 36.9125 7.21688L30.5435 0.837763C30.2339 0.528228 30.4526 0 30.89 0Z" fill="#6D38DD"/>
<path d="M0.844492 30.5372L7.21688 36.9163C7.30772 37.0071 7.36155 37.1316 7.36155 37.2628V42.1481C7.36155 42.4173 7.58024 42.6393 7.8494 42.6393H12.738C12.8693 42.6393 12.9937 42.6932 13.0846 42.784L19.457 49.1631C19.7665 49.4727 19.5478 50.0009 19.1104 50.0009L0.491219 49.9908C0.218693 49.9942 0 49.7721 0 49.5029L0.0100935 30.8871C0.0100935 30.4497 0.538322 30.231 0.847857 30.5405L0.844492 30.5372Z" fill="#6D38DD"/>
<path d="M64.9018 39.3232V10.1562H70.026L80.6511 27.4465L77.6499 27.4061L88.3995 10.1562H93.2747V39.3232H87.8982V28.365C87.8982 25.8652 87.9622 23.6143 88.0866 21.6158C88.2111 19.6173 88.4265 17.6288 88.7326 15.6572L89.3988 17.4505L80.3584 31.4099H77.6096L68.8585 17.5784L69.4405 15.6606C69.7467 17.5212 69.962 19.4322 70.0865 21.3904C70.211 23.3485 70.2749 25.6767 70.2749 28.3683V39.3266H64.8984L64.9018 39.3232Z" fill="white"/>
<path d="M108.483 39.7368C106.676 39.7368 105.038 39.2355 103.568 38.2363C102.094 37.237 100.913 35.8744 100.025 34.1518C99.1365 32.4291 98.6924 30.471 98.6924 28.2773C98.6924 26.0837 99.1365 24.1255 100.025 22.4029C100.913 20.6803 102.121 19.3345 103.648 18.3621C105.176 17.3898 106.898 16.9053 108.816 16.9053C109.926 16.9053 110.943 17.0668 111.858 17.383C112.773 17.7027 113.58 18.1535 114.273 18.7389C114.967 19.321 115.545 19.9872 116.003 20.7375C116.46 21.4877 116.773 22.2919 116.941 23.1532L115.818 22.8605V17.3595H120.986V39.3163H115.777V34.0676L116.985 33.859C116.79 34.6093 116.437 35.3394 115.922 36.046C115.407 36.7559 114.768 37.3783 114.004 37.92C113.241 38.4617 112.393 38.8991 111.464 39.2322C110.532 39.5653 109.54 39.7335 108.486 39.7335L108.483 39.7368ZM109.9 35.1981C111.094 35.1981 112.15 34.9054 113.066 34.3233C113.981 33.7413 114.697 32.9271 115.212 31.8874C115.727 30.8444 115.983 29.6433 115.983 28.284C115.983 26.9248 115.727 25.7708 115.212 24.7412C114.697 23.715 113.984 22.9076 113.066 22.3255C112.15 21.7434 111.094 21.4507 109.9 21.4507C108.705 21.4507 107.655 21.7434 106.754 22.3255C105.852 22.9076 105.149 23.715 104.651 24.7412C104.15 25.7708 103.901 26.9483 103.901 28.284C103.901 29.6198 104.15 30.8478 104.651 31.8874C105.152 32.9304 105.852 33.7413 106.754 34.3233C107.655 34.9054 108.705 35.1981 109.9 35.1981Z" fill="white"/>
<path d="M130.025 12.6968C128.995 12.6968 128.198 12.4411 127.629 11.9264C127.06 11.4116 126.774 10.6849 126.774 9.73943C126.774 8.85119 127.067 8.12782 127.649 7.57268C128.231 7.01754 129.025 6.73828 130.025 6.73828C131.081 6.73828 131.892 6.99398 132.46 7.50875C133.029 8.02352 133.315 8.76708 133.315 9.73606C133.315 10.5974 133.022 11.3073 132.44 11.8624C131.858 12.4176 131.051 12.6968 130.025 12.6968ZM127.525 39.3236V17.3634H132.649V39.3202H127.525V39.3236Z" fill="white"/>
<path d="M147.44 39.7368C145.633 39.7368 143.995 39.2355 142.525 38.2363C141.051 37.237 139.873 35.8744 138.982 34.1518C138.094 32.4291 137.649 30.471 137.649 28.2773C137.649 26.0837 138.094 24.1255 138.982 22.4029C139.87 20.6803 141.078 19.3345 142.605 18.3621C144.133 17.3898 145.855 16.9053 147.773 16.9053C148.884 16.9053 149.9 17.0668 150.815 17.383C151.73 17.7027 152.537 18.1535 153.23 18.7389C153.924 19.321 154.502 19.9872 154.96 20.7375C155.417 21.4877 155.73 22.2919 155.899 23.1532L154.775 22.8605V17.3595H159.943V39.3163H154.734V34.0676L155.942 33.859C155.747 34.6093 155.394 35.3394 154.879 36.046C154.364 36.7559 153.725 37.3783 152.961 37.92C152.198 38.4617 151.35 38.8991 150.421 39.2322C149.489 39.5653 148.497 39.7335 147.444 39.7335L147.44 39.7368ZM148.857 35.1981C150.051 35.1981 151.107 34.9054 152.023 34.3233C152.938 33.7413 153.654 32.9271 154.169 31.8874C154.684 30.8444 154.94 29.6433 154.94 28.284C154.94 26.9248 154.684 25.7708 154.169 24.7412C153.654 23.715 152.941 22.9076 152.023 22.3255C151.107 21.7434 150.051 21.4507 148.857 21.4507C147.662 21.4507 146.612 21.7434 145.711 22.3255C144.809 22.9076 144.106 23.715 143.608 24.7412C143.107 25.7708 142.858 26.9483 142.858 28.284C142.858 29.6198 143.107 30.8478 143.608 31.8874C144.109 32.9304 144.809 33.7413 145.711 34.3233C146.612 34.9054 147.662 35.1981 148.857 35.1981Z" fill="white"/>
<path d="M174.734 39.7379C172.789 39.7379 171.046 39.2466 169.505 38.2575C167.964 37.2717 166.74 35.9259 165.838 34.2167C164.936 32.5075 164.485 30.5427 164.485 28.3221C164.485 26.1015 164.929 24.1703 165.818 22.4476C166.706 20.725 167.921 19.3725 169.465 18.3867C171.006 17.4009 172.749 16.9063 174.693 16.9063C175.75 16.9063 176.769 17.0745 177.755 17.4076C178.741 17.7407 179.622 18.1915 180.399 18.7601C181.177 19.3287 181.796 19.9613 182.253 20.6544C182.711 21.3474 182.967 22.0708 183.024 22.8211L181.648 22.9893V8.48828H186.772V39.3207H181.813L181.688 34.1528L182.687 34.2369C182.66 34.93 182.418 35.5995 181.957 36.2354C181.5 36.8747 180.908 37.4567 180.188 37.9849C179.464 38.5132 178.626 38.9371 177.668 39.2567C176.709 39.5764 175.73 39.7345 174.73 39.7345L174.734 39.7379ZM175.733 35.4044C176.927 35.4044 177.984 35.0982 178.899 34.4892C179.814 33.8769 180.531 33.0459 181.045 31.9894C181.56 30.9329 181.816 29.7116 181.816 28.3221C181.816 26.9325 181.56 25.7449 181.045 24.6749C180.531 23.605 179.817 22.774 178.899 22.1751C177.984 21.5796 176.927 21.2802 175.733 21.2802C174.539 21.2802 173.482 21.5796 172.567 22.1751C171.652 22.774 170.935 23.605 170.42 24.6749C169.906 25.7449 169.65 26.9594 169.65 28.3221C169.65 29.6847 169.906 30.9329 170.42 31.9894C170.935 33.0459 171.648 33.8802 172.567 34.4892C173.482 35.1016 174.539 35.4044 175.733 35.4044Z" fill="white"/>
<path d="M201.441 39.7379C199.496 39.7379 197.753 39.2466 196.212 38.2575C194.671 37.2717 193.447 35.9259 192.545 34.2167C191.643 32.5075 191.192 30.5427 191.192 28.3221C191.192 26.1015 191.636 24.1703 192.525 22.4476C193.413 20.725 194.628 19.3725 196.172 18.3867C197.713 17.4009 199.456 16.9063 201.4 16.9063C202.457 16.9063 203.476 17.0745 204.462 17.4076C205.448 17.7407 206.329 18.1915 207.107 18.7601C207.884 19.3287 208.503 19.9613 208.96 20.6544C209.418 21.3474 209.674 22.0708 209.731 22.8211L208.355 22.9893V8.48828H213.479V39.3207H208.52L208.395 34.1528L209.394 34.2369C209.367 34.93 209.125 35.5995 208.664 36.2354C208.207 36.8747 207.615 37.4567 206.895 37.9849C206.171 38.5132 205.333 38.9371 204.375 39.2567C203.416 39.5764 202.437 39.7345 201.437 39.7345L201.441 39.7379ZM202.44 35.4044C203.634 35.4044 204.691 35.0982 205.606 34.4892C206.521 33.8769 207.238 33.0459 207.752 31.9894C208.267 30.9329 208.523 29.7116 208.523 28.3221C208.523 26.9325 208.267 25.7449 207.752 24.6749C207.238 23.605 206.524 22.774 205.606 22.1751C204.691 21.5796 203.634 21.2802 202.44 21.2802C201.246 21.2802 200.189 21.5796 199.274 22.1751C198.359 22.774 197.642 23.605 197.127 24.6749C196.613 25.7449 196.357 26.9594 196.357 28.3221C196.357 29.6847 196.613 30.9329 197.127 31.9894C197.642 33.0459 198.355 33.8802 199.274 34.4892C200.189 35.1016 201.246 35.4044 202.44 35.4044Z" fill="white"/>
<path d="M222.647 48.9041L227.314 38.1107L227.354 41.529L216.521 17.3618H222.435L228.478 31.6946C228.673 32.0546 228.868 32.5357 229.06 33.1312C229.255 33.7301 229.42 34.3189 229.561 34.901L228.518 35.234C228.714 34.7058 228.922 34.1439 229.144 33.5451C229.366 32.9495 229.575 32.3305 229.77 31.6912L234.938 17.3584H240.896L231.731 39.3152L227.98 48.8973H222.647V48.9041Z" fill="white"/>
<path d="M25.0027 41.4536C15.9286 41.4536 8.54688 34.0719 8.54688 24.9978C8.54688 15.9237 15.9286 8.54199 25.0027 8.54199C34.0768 8.54199 41.4585 15.9237 41.4585 24.9978C41.4585 34.0719 34.0768 41.4536 25.0027 41.4536ZM25.0027 15.9002C19.9862 15.9002 15.9051 19.9813 15.9051 24.9978C15.9051 30.0143 19.9862 34.0955 25.0027 34.0955C30.0192 34.0955 34.1003 30.0143 34.1003 24.9978C34.1003 19.9813 30.0192 15.9002 25.0027 15.9002Z" fill="#6CA5F6"/>
<path d="M49.9994 30.8905L49.9893 49.5097C49.9893 49.7788 49.7706 50.0009 49.4981 50.0009L30.8822 49.9908C30.4448 49.9908 30.2261 49.4626 30.5357 49.153L36.9148 42.7806C37.0056 42.6898 37.1301 42.636 37.2613 42.636H42.1466C42.4158 42.636 42.6378 42.4173 42.6378 42.1481V37.2595C42.6378 37.1283 42.6916 37.0038 42.7825 36.9129L49.1616 30.5405C49.4711 30.231 49.9994 30.4497 49.9994 30.8871V30.8905Z" fill="#6D38DD"/>
<path d="M19.4774 0.844492L13.0983 7.21688C13.0074 7.30772 12.8829 7.36155 12.7517 7.36155H7.86644C7.59728 7.36155 7.37522 7.58024 7.37522 7.8494V12.738C7.37522 12.8693 7.32139 12.9937 7.23055 13.0846L0.851435 19.457C0.5419 19.7665 0.0136719 19.5478 0.0136719 19.1104L0.0237654 0.491219C0.0237654 0.218693 0.242459 0 0.514984 0L19.1308 0.0100935C19.5682 0.0100935 19.7869 0.538322 19.4774 0.847857V0.844492Z" fill="#6D38DD"/>
<path d="M30.89 0L49.5092 0.0100935C49.7784 0.0100935 50.0004 0.228787 50.0004 0.501312L49.9904 19.1172C49.9904 19.5545 49.4621 19.7732 49.1526 19.4637L42.7802 13.0846C42.6894 12.9937 42.6355 12.8693 42.6355 12.738V7.85277C42.6355 7.58361 42.4168 7.36155 42.1477 7.36155H37.259C37.1278 7.36155 37.0033 7.30772 36.9125 7.21688L30.5435 0.837763C30.2339 0.528228 30.4526 0 30.89 0Z" fill="#6D38DD"/>
<path d="M0.844492 30.5372L7.21688 36.9163C7.30772 37.0071 7.36155 37.1316 7.36155 37.2628V42.1481C7.36155 42.4173 7.58024 42.6393 7.8494 42.6393H12.738C12.8693 42.6393 12.9937 42.6932 13.0846 42.784L19.457 49.1631C19.7665 49.4727 19.5478 50.0009 19.1104 50.0009L0.491219 49.9908C0.218693 49.9942 0 49.7721 0 49.5029L0.0100935 30.8871C0.0100935 30.4497 0.538322 30.231 0.847857 30.5405L0.844492 30.5372Z" fill="#6D38DD"/>
</svg>
